<svg width="28" height="28" viewBox="0 0 28 28" fill="none" xmlns="http://www.w3.org/2000/svg">
<path d="M14.0002 25.6666C12.4057 25.6666 10.8988 25.3603 9.47933 24.7478C8.05989 24.1353 6.8203 23.2992 5.76058 22.2395C4.70086 21.1798 3.86475 19.9402 3.25225 18.5208C2.63975 17.1013 2.3335 15.5944 2.3335 13.9999C2.3335 12.386 2.63975 10.8742 3.25225 9.4645C3.86475 8.05478 4.70086 6.82006 5.76058 5.76034C6.8203 4.70061 8.05989 3.8645 9.47933 3.252C10.8988 2.6395 12.4057 2.33325 14.0002 2.33325C15.6141 2.33325 17.1259 2.6395 18.5356 3.252C19.9453 3.8645 21.18 4.70061 22.2397 5.76034C23.2995 6.82006 24.1356 8.05478 24.7481 9.4645C25.3606 10.8742 25.6668 12.386 25.6668 13.9999C25.6668 15.5944 25.3606 17.1013 24.7481 18.5208C24.1356 19.9402 23.2995 21.1798 22.2397 22.2395C21.18 23.2992 19.9453 24.1353 18.5356 24.7478C17.1259 25.3603 15.6141 25.6666 14.0002 25.6666ZM14.0002 23.2749C14.5057 22.5749 14.9432 21.8458 15.3127 21.0874C15.6821 20.3291 15.9835 19.5221 16.2168 18.6666H11.7835C12.0168 19.5221 12.3182 20.3291 12.6877 21.0874C13.0571 21.8458 13.4946 22.5749 14.0002 23.2749ZM10.9668 22.8083C10.6168 22.1666 10.3106 21.5006 10.0481 20.8103C9.78558 20.1201 9.56683 19.4055 9.39183 18.6666H5.95016C6.51405 19.6388 7.21891 20.4846 8.06475 21.2041C8.91058 21.9235 9.87794 22.4583 10.9668 22.8083ZM17.0335 22.8083C18.1224 22.4583 19.0897 21.9235 19.9356 21.2041C20.7814 20.4846 21.4863 19.6388 22.0502 18.6666H18.6085C18.4335 19.4055 18.2147 20.1201 17.9522 20.8103C17.6897 21.5006 17.3835 22.1666 17.0335 22.8083ZM4.9585 16.3333H8.92516C8.86683 15.9444 8.82308 15.5603 8.79391 15.1812C8.76475 14.802 8.75016 14.4083 8.75016 13.9999C8.75016 13.5916 8.76475 13.1978 8.79391 12.8187C8.82308 12.4395 8.86683 12.0555 8.92516 11.6666H4.9585C4.86127 12.0555 4.78836 12.4395 4.73975 12.8187C4.69113 13.1978 4.66683 13.5916 4.66683 13.9999C4.66683 14.4083 4.69113 14.802 4.73975 15.1812C4.78836 15.5603 4.86127 15.9444 4.9585 16.3333ZM11.2585 16.3333H16.7418C16.8002 15.9444 16.8439 15.5603 16.8731 15.1812C16.9022 14.802 16.9168 14.4083 16.9168 13.9999C16.9168 13.5916 16.9022 13.1978 16.8731 12.8187C16.8439 12.4395 16.8002 12.0555 16.7418 11.6666H11.2585C11.2002 12.0555 11.1564 12.4395 11.1272 12.8187C11.0981 13.1978 11.0835 13.5916 11.0835 13.9999C11.0835 14.4083 11.0981 14.802 11.1272 15.1812C11.1564 15.5603 11.2002 15.9444 11.2585 16.3333ZM19.0752 16.3333H23.0418C23.1391 15.9444 23.212 15.5603 23.2606 15.1812C23.3092 14.802 23.3335 14.4083 23.3335 13.9999C23.3335 13.5916 23.3092 13.1978 23.2606 12.8187C23.212 12.4395 23.1391 12.0555 23.0418 11.6666H19.0752C19.1335 12.0555 19.1772 12.4395 19.2064 12.8187C19.2356 13.1978 19.2502 13.5916 19.2502 13.9999C19.2502 14.4083 19.2356 14.802 19.2064 15.1812C19.1772 15.5603 19.1335 15.9444 19.0752 16.3333ZM18.6085 9.33325H22.0502C21.4863 8.36103 20.7814 7.5152 19.9356 6.79575C19.0897 6.07631 18.1224 5.54159 17.0335 5.19159C17.3835 5.83325 17.6897 6.49922 17.9522 7.1895C18.2147 7.87978 18.4335 8.59436 18.6085 9.33325ZM11.7835 9.33325H16.2168C15.9835 8.4777 15.6821 7.67075 15.3127 6.91242C14.9432 6.15409 14.5057 5.42492 14.0002 4.72492C13.4946 5.42492 13.0571 6.15409 12.6877 6.91242C12.3182 7.67075 12.0168 8.4777 11.7835 9.33325ZM5.95016 9.33325H9.39183C9.56683 8.59436 9.78558 7.87978 10.0481 7.1895C10.3106 6.49922 10.6168 5.83325 10.9668 5.19159C9.87794 5.54159 8.91058 6.07631 8.06475 6.79575C7.21891 7.5152 6.51405 8.36103 5.95016 9.33325Z" fill="black"/>
</svg>
