<svg width="33" height="33" viewBox="0 0 33 33" fill="none" xmlns="http://www.w3.org/2000/svg">
<path d="M0 6.22222C0 5.89806 0.115896 5.58719 0.322179 5.35798C0.528473 5.12877 0.808258 5 1.1 5H20.9C21.1917 5 21.4716 5.12877 21.6778 5.35798C21.8841 5.58719 22 5.89806 22 6.22222C22 6.54638 21.8841 6.85725 21.6778 7.08647C21.4716 7.31567 21.1917 7.44444 20.9 7.44444H1.1C0.808258 7.44444 0.528473 7.31567 0.322179 7.08647C0.115896 6.85725 0 6.54638 0 6.22222ZM1.1 17.2222H20.9C21.1917 17.2222 21.4716 17.0934 21.6778 16.8642C21.8841 16.6351 22 16.3241 22 16C22 15.6759 21.8841 15.3649 21.6778 15.1358C21.4716 14.9066 21.1917 14.7778 20.9 14.7778H1.1C0.808258 14.7778 0.528473 14.9066 0.322179 15.1358C0.115896 15.3649 0 15.6759 0 16C0 16.3241 0.115896 16.6351 0.322179 16.8642C0.528473 17.0934 0.808258 17.2222 1.1 17.2222ZM1.1 27H20.9C21.1917 27 21.4716 26.8712 21.6778 26.642C21.8841 26.4128 22 26.1019 22 25.7778C22 25.4536 21.8841 25.1427 21.6778 24.9135C21.4716 24.6844 21.1917 24.5556 20.9 24.5556H1.1C0.808258 24.5556 0.528473 24.6844 0.322179 24.9135C0.115896 25.1427 0 25.4536 0 25.7778C0 26.1019 0.115896 26.4128 0.322179 26.642C0.528473 26.8712 0.808258 27 1.1 27Z" fill="#292929"/>
</svg>
