<svg width="24" height="25" viewBox="0 0 24 25" fill="none" xmlns="http://www.w3.org/2000/svg">
<path d="M8.66965 12.2024C9.44762 13.7929 10.7369 15.0763 12.3309 15.847C12.4475 15.9023 12.5765 15.9262 12.7052 15.9165C12.8339 15.9067 12.9579 15.8636 13.0648 15.7915L15.4119 14.2264C15.5157 14.1572 15.6352 14.1149 15.7594 14.1035C15.8837 14.0921 16.0088 14.1119 16.1235 14.161L20.5144 16.0428C20.6636 16.1062 20.7881 16.2163 20.8693 16.3566C20.9504 16.4969 20.9838 16.6598 20.9643 16.8207C20.8255 17.9067 20.2956 18.9049 19.4739 19.6283C18.6521 20.3518 17.5948 20.7509 16.5 20.7509C13.1185 20.7509 9.87548 19.4076 7.48439 17.0166C5.0933 14.6255 3.75 11.3825 3.75 8.00095C3.75006 6.90611 4.14918 5.84883 4.87264 5.02708C5.5961 4.20533 6.59428 3.67545 7.68028 3.53667C7.84117 3.5172 8.00403 3.55054 8.14432 3.63167C8.28461 3.71281 8.39473 3.83734 8.4581 3.9865L10.3416 8.3813C10.3903 8.49497 10.4101 8.61893 10.3994 8.74214C10.3886 8.86534 10.3475 8.98397 10.2798 9.08745L8.72011 11.4705C8.64912 11.5778 8.60716 11.7015 8.59831 11.8298C8.58947 11.9581 8.61405 12.0864 8.66965 12.2024Z" stroke="#FFFDFD" stroke-width="2" stroke-linecap="round" stroke-linejoin="round"/>
</svg>
